<svg enable-background="new 0 0 24 24" viewBox="0 0 24 24" xmlns="http://www.w3.org/2000/svg"><path d="m16.9 24h-9.7l-1-7h-2.2v-2h7v-3.1c-1.9.3-3.8-.2-5.2-1.4-1.7-1.5-2.2-3.7-1.4-5.7l.2-.4.4-.1c2-.7 4.4-.3 6 .9 0-1.4.6-2.8 1.8-3.8 1.1-.9 2.6-1.4 4-1.4.7 0 1.5.1 2.2.3l.4.1.2.4c.9 2 .4 4.2-1.4 5.7-1.4 1.2-3.3 1.7-5.2 1.4v1.1.4 5.6h7v2h-2.1zm-8-2h6.3l.7-5h-7.7zm-2.8-15.9c-.3 1 .1 2.1 1 2.9 1 .9 2.5 1.2 3.8.9.1-.2.1-.4.1-.6v-.3c0-.8-.4-1.5-1.1-2.1-1-.8-2.4-1.1-3.8-.8zm7-.2c1.4.3 2.8 0 3.8-.9.9-.8 1.3-1.9 1-2.9-1.4-.3-2.8 0-3.8.9-.9.7-1.3 1.8-1 2.9z"/></svg>