<svg fill="none" height="24" viewBox="0 0 24 24" width="24" xmlns="http://www.w3.org/2000/svg"><path d="m5.07167 8c.73768-1.27771 1.81434-2.32655 3.11093-3.03054s2.7626-1.03571 4.236-.95849c1.4733.07721 2.8966.56036 4.1125 1.39602 1.2159.83567 2.177 1.99129 2.7771 3.33912m-16.07651-3.23074.72941 3.15953c.12424.53813.66119.87366 1.19932.74943l3.15954-.72941m10.60814 7.30498c-.7377 1.2777-1.8143 2.3265-3.1109 3.0305s-2.7626 1.0357-4.236.9585c-1.4733-.0772-2.89664-.5603-4.11254-1.396s-2.17702-1.9913-2.77711-3.3391m16.07655 3.2307-.7294-3.1595c-.1243-.5381-.6612-.8737-1.1993-.7494l-3.1596.7294" stroke="#000000" stroke-linecap="round" stroke-width="2"/></svg>
